<mxfile host="app.diagrams.net" modified="2023-04-30T14:48:49.006Z" agent="Mozilla/5.0 (Windows NT 10.0; Win64; x64) AppleWebKit/537.36 (KHTML, like Gecko) Chrome/112.0.0.0 Safari/537.36" etag="qd8MoFqB-CfYes39viel" version="21.2.3" type="github">
  <diagram name="Page-1" id="syjAWIGnNoKZ114kDl3m">
    <mxGraphModel dx="1434" dy="796" grid="1" gridSize="10" guides="1" tooltips="1" connect="1" arrows="1" fold="1" page="1" pageScale="1" pageWidth="850" pageHeight="1100" math="0" shadow="0">
      <root>
        <mxCell id="0" />
        <mxCell id="1" parent="0" />
        <mxCell id="dXtrXQo6BJToMfAPv9JH-1" value="Bones" style="rounded=0;whiteSpace=wrap;html=1;" vertex="1" parent="1">
          <mxGeometry x="20" y="110" width="120" height="60" as="geometry" />
        </mxCell>
        <mxCell id="dXtrXQo6BJToMfAPv9JH-2" value="" style="endArrow=classic;html=1;rounded=0;" edge="1" parent="1" source="dXtrXQo6BJToMfAPv9JH-1">
          <mxGeometry width="50" height="50" relative="1" as="geometry">
            <mxPoint x="80" y="220" as="sourcePoint" />
            <mxPoint x="80" y="240.71067811865476" as="targetPoint" />
          </mxGeometry>
        </mxCell>
        <mxCell id="dXtrXQo6BJToMfAPv9JH-20" style="edgeStyle=orthogonalEdgeStyle;rounded=0;orthogonalLoop=1;jettySize=auto;html=1;" edge="1" parent="1" source="dXtrXQo6BJToMfAPv9JH-4" target="dXtrXQo6BJToMfAPv9JH-18">
          <mxGeometry relative="1" as="geometry" />
        </mxCell>
        <mxCell id="dXtrXQo6BJToMfAPv9JH-4" value="Amulet" style="shape=hexagon;perimeter=hexagonPerimeter2;whiteSpace=wrap;html=1;fixedSize=1;" vertex="1" parent="1">
          <mxGeometry x="20" y="240" width="120" height="80" as="geometry" />
        </mxCell>
        <mxCell id="dXtrXQo6BJToMfAPv9JH-5" value="Shovel&lt;br&gt;(20 Bones)" style="ellipse;whiteSpace=wrap;html=1;" vertex="1" parent="1">
          <mxGeometry x="210" y="100" width="120" height="80" as="geometry" />
        </mxCell>
        <mxCell id="dXtrXQo6BJToMfAPv9JH-6" value="&lt;font style=&quot;font-size: 18px;&quot;&gt;Graveyard&lt;/font&gt;" style="rounded=1;whiteSpace=wrap;html=1;" vertex="1" parent="1">
          <mxGeometry x="20" y="10" width="120" height="60" as="geometry" />
        </mxCell>
        <mxCell id="dXtrXQo6BJToMfAPv9JH-7" value="&lt;font style=&quot;font-size: 18px;&quot;&gt;Town&lt;/font&gt;" style="rounded=1;whiteSpace=wrap;html=1;" vertex="1" parent="1">
          <mxGeometry x="210" y="10" width="120" height="60" as="geometry" />
        </mxCell>
        <mxCell id="dXtrXQo6BJToMfAPv9JH-8" value="Altar" style="rounded=1;whiteSpace=wrap;html=1;fontSize=18;" vertex="1" parent="1">
          <mxGeometry x="400" y="10" width="120" height="60" as="geometry" />
        </mxCell>
        <mxCell id="dXtrXQo6BJToMfAPv9JH-13" value="" style="endArrow=classic;html=1;rounded=0;" edge="1" parent="1" source="dXtrXQo6BJToMfAPv9JH-1">
          <mxGeometry width="50" height="50" relative="1" as="geometry">
            <mxPoint x="140" y="190" as="sourcePoint" />
            <mxPoint x="210.71067811865476" y="140" as="targetPoint" />
          </mxGeometry>
        </mxCell>
        <mxCell id="dXtrXQo6BJToMfAPv9JH-14" value="20" style="text;html=1;align=center;verticalAlign=middle;resizable=0;points=[];autosize=1;strokeColor=none;fillColor=none;" vertex="1" parent="1">
          <mxGeometry x="150" y="120" width="40" height="30" as="geometry" />
        </mxCell>
        <mxCell id="dXtrXQo6BJToMfAPv9JH-15" value="" style="endArrow=classic;html=1;rounded=0;" edge="1" parent="1" source="dXtrXQo6BJToMfAPv9JH-5">
          <mxGeometry width="50" height="50" relative="1" as="geometry">
            <mxPoint x="270" y="230" as="sourcePoint" />
            <mxPoint x="270" y="250.71067811865476" as="targetPoint" />
          </mxGeometry>
        </mxCell>
        <mxCell id="dXtrXQo6BJToMfAPv9JH-16" value="Cart&lt;br&gt;(50 Bones)" style="ellipse;whiteSpace=wrap;html=1;" vertex="1" parent="1">
          <mxGeometry x="210" y="250" width="120" height="80" as="geometry" />
        </mxCell>
        <mxCell id="dXtrXQo6BJToMfAPv9JH-17" value="Chance?" style="text;html=1;align=center;verticalAlign=middle;resizable=0;points=[];autosize=1;strokeColor=none;fillColor=none;" vertex="1" parent="1">
          <mxGeometry x="80" y="190" width="70" height="30" as="geometry" />
        </mxCell>
        <mxCell id="dXtrXQo6BJToMfAPv9JH-18" value="Altar" style="rounded=1;whiteSpace=wrap;html=1;" vertex="1" parent="1">
          <mxGeometry x="20" y="380" width="120" height="60" as="geometry" />
        </mxCell>
      </root>
    </mxGraphModel>
  </diagram>
</mxfile>
